<svg xmlns="http://www.w3.org/2000/svg" width="160" height="129.295" viewBox="0 0 160 129.295">
  <g id="Group_5774" data-name="Group 5774" transform="translate(-199 -378.4)">
    <path id="Path_5841" data-name="Path 5841" d="M131.789,42.8,41.639,22.118C23.459,19.152,6.651,32.684,4.617,51.924L.2,94.4c-2.044,19.34,11.657,36.64,30.1,38l95.178,11.031c18.935,1.4,34.878-14.559,34.518-34.549l-.613-32.822c-.3-16.654-11.959-30.708-27.592-33.259" transform="translate(199 356.69)" fill="#f0fffc"/>
    <g id="Group_5765" data-name="Group 5765" transform="translate(240.686 389.006)">
      <g id="Group_5771" data-name="Group 5771" transform="translate(-20.686 -6.867)">
        <path id="Path_5844" data-name="Path 5844" d="M28,113.615s-.415,4.862,1.346,7.71,4.028,5.731,8.368,4.887c0,0,.486-7.962,2.3-9.575s-11.636-3.023-11.636-3.023" transform="translate(8.057 -38.991)" fill="#2b365f"/>
        <path id="Path_5843" data-name="Path 5843" d="M49.143,114.352s7.748,19.775,13,14.126a13.534,13.534,0,0,0-.573-6.97c-1.32-4.117.783-9.517.783-9.517Z" transform="translate(2.761 -35.968)" fill="#2b365f"/>
        <g id="Group_5772" data-name="Group 5772" transform="matrix(-0.934, 0.358, -0.358, -0.934, 73.449, 108.872)">
          <path id="Path_5956" data-name="Path 5956" d="M0,0C2.084,11.334,8.914,26.1,20.621,34.51,45.19,52.15,44.533,58.653,44.533,58.653" transform="translate(0 0)" fill="none" stroke="#6480e8" stroke-linecap="round" stroke-width="1"/>
          <path id="Path_5958" data-name="Path 5958" d="M0,.011s10.256,10.6,14.049,8.9S4.117-.334,0,.011" transform="translate(29.037 41.202) rotate(-11)" fill="#6480e8"/>
          <path id="Path_5963" data-name="Path 5963" d="M0,.009S8.17,8.368,11.192,7.031,3.28-.263,0,.009" transform="translate(1.328 6.345)" fill="#6480e8"/>
          <path id="Path_5959" data-name="Path 5959" d="M5.931,0S-2.695,11.358.858,11.517,5.931,0,5.931,0" transform="translate(35.832 54.929) rotate(-14)" fill="#6480e8"/>
          <path id="Path_5961" data-name="Path 5961" d="M3,0s8.325,18.641,1.6,18.327S-.419,3.793,3,0" transform="translate(41.526 58.656) rotate(-25)" fill="#6480e8"/>
        </g>
        <path id="Path_5845" data-name="Path 5845" d="M64.12,113.609s.344,17.632,10.676,16.311c0,0,1.709-.311-.389-7.768a13.77,13.77,0,0,1,1.045-6.059c1.286-2.641.354-8-2.676-8.079s-8.656,5.6-8.656,5.6" transform="translate(-3.006 -34.437)" fill="#698693"/>
        <path id="Path_5916" data-name="Path 5916" d="M45.869,65.15s-2.605,12.074,7.124,17.534" transform="translate(23.956 10.403)" fill="none" stroke="#2b365f" stroke-linecap="round" stroke-width="1"/>
        <path id="Path_5917" data-name="Path 5917" d="M41.415,67.85s-2.866,7.839,1.333,12.6" transform="translate(23.702 10.537)" fill="none" stroke="#2b365f" stroke-linecap="round" stroke-width="1"/>
        <path id="Path_5846" data-name="Path 5846" d="M61.261,51.982s.7-8.024-17.3-11.024S10.54,51.982,10.54,51.982s-15.466,10.876-7.7,24.082,35.112,9.943,35.112,9.943,25.17-5.15,20.509-26.191c0,0,6.525-3.794,2.8-7.834" transform="translate(21.639 -6.449)" fill="#fac9a2"/>
        <path id="Path_5847" data-name="Path 5847" d="M3.98,88.864c8.448,9.476,25.526,8.381,28.571-7.788S22.616,63.351,17.209,63.3.253,68.548.62,80.176c0,0-2.625.236-.315,3.439,2.323,1.654.154,2.7.958,3.859C1.84,88.3,3.98,88.864,3.98,88.864Z" transform="translate(21.65 -17.17)" fill="#b4dcd3"/>
        <path id="Path_5935" data-name="Path 5935" d="M3.98,88.864c8.448,9.476,25.526,8.381,28.571-7.788S22.616,63.351,17.209,63.3.253,68.548.62,80.176c0,0-2.625.236-.315,3.439,2.323,1.654.154,2.7.958,3.859C1.84,88.3,3.98,88.864,3.98,88.864Z" transform="translate(21.65 -17.17)" fill="#b4dcd3"/>
        <path id="Path_5850" data-name="Path 5850" d="M92,37.811S96.794,21.469,95.4,8.5s6.37-8.538,9.167-3.491,2.8,8.027,2.8,8.027A143.719,143.719,0,0,1,95.271,43.2Z" transform="translate(-13.74 0)" fill="#698693"/>
        <path id="Path_5851" data-name="Path 5851" d="M88.411,89.636s.446,7.153-.8,8.707,10.875,6.357,15.847-8.707a92.3,92.3,0,0,0-5.089-14.418c-1.325-2.749-3.907-4.454-4.543-5.54-1.865-3.185-5.418,19.958-5.418,19.958" transform="translate(-12.017 -19.561)" fill="#698693"/>
        <path id="Path_5852" data-name="Path 5852" d="M97.319,38.207S109.825,5.519,109.825,4.643s4.817-8.291,7.147,0c0,0,10.739,22.029-7.147,37.175,0,0,16.462,19.28,9.626,29.74s-10.876,11.392-12.274,1.6S97.6,45.121,97.6,45.121Z" transform="translate(-15.788 4.995)" fill="#b4dcd3"/>
        <path id="Path_5901" data-name="Path 5901" d="M55.04,43.739s7.13-13.654,4.9-35.973" transform="translate(24.43 -4.216)" fill="none" stroke="#2b365f" stroke-linecap="round" stroke-width="1"/>
        <path id="Path_5903" data-name="Path 5903" d="M57,37.931S69.912,24.364,71.906,8.3" transform="translate(24.528 7.564)" fill="none" stroke="#2b365f" stroke-linecap="round" stroke-width="1"/>
        <path id="Path_5904" data-name="Path 5904" d="M57,39.774S75.371,34,81.881,21.4" transform="translate(24.528 8.218)" fill="none" stroke="#2b365f" stroke-linecap="round" stroke-width="1"/>
        <path id="Path_5905" data-name="Path 5905" d="M57,40.65c.624.21,15.118,7.349,18.478,31.97" transform="translate(24.527 9.18)" fill="none" stroke="#2b365f" stroke-linecap="round" stroke-width="1"/>
        <path id="Path_5906" data-name="Path 5906" d="M61,39.85A27.178,27.178,0,0,1,72.023,45.6" transform="translate(24.727 9.14)" fill="none" stroke="#2b365f" stroke-linecap="round" stroke-width="1"/>
        <path id="Path_5907" data-name="Path 5907" d="M57.522,43.05a46.819,46.819,0,0,1,3.44,23.2" transform="translate(24.554 9.299)" fill="none" stroke="#2b365f" stroke-linecap="round" stroke-width="1"/>
        <path id="Path_5911" data-name="Path 5911" d="M0,2.43s1.281-3.407,4.644,0c0,0,1.681-4.921,5.149-.757" transform="matrix(0.766, 0.643, -0.643, 0.766, 58.576, 49.816)" fill="none" stroke="#2b365f" stroke-linecap="round" stroke-linejoin="round" stroke-width="1"/>
        <path id="Path_5918" data-name="Path 5918" d="M0,1.379S2.626-1.67,4.654,1.3" transform="matrix(-0.208, 0.978, -0.978, -0.208, 72.142, 65.659)" fill="none" stroke="#2b365f" stroke-linecap="round" stroke-linejoin="round" stroke-width="1"/>
        <path id="Path_5853" data-name="Path 5853" d="M51.416,103.552s2.1,14.294,14.915,9.866c0,0,4.206-1.195,4.583-1.352.854-.357-.622-2.612-2.331-3.155S56.932,104.251,56.7,102.62s-5.283.932-5.283.932" transform="translate(1.886 -32.151)" fill="#b4dcd3"/>
        <path id="Path_5914" data-name="Path 5914" d="M34.248,59.79a5.544,5.544,0,0,0,2.594,5.195" transform="translate(23.39 10.135)" fill="none" stroke="#2b365f" stroke-linecap="round" stroke-width="1"/>
        <path id="Path_5915" data-name="Path 5915" d="M31.687,60.5s.531,7.4,8.849,8.277" transform="translate(23.264 10.171)" fill="none" stroke="#2b365f" stroke-linecap="round" stroke-width="1"/>
        <path id="Path_5919" data-name="Path 5919" d="M30.069,93.162A5.511,5.511,0,0,0,35.32,98.9a5.762,5.762,0,0,0,0-11.478,5.511,5.511,0,0,0-5.251,5.739" transform="translate(8.227 -33.529)" fill="#fff"/>
        <path id="Path_5848" data-name="Path 5848" d="M30.069,92.3a4.685,4.685,0,0,0,4.463,4.878,4.9,4.9,0,0,0,0-9.757A4.685,4.685,0,0,0,30.069,92.3" transform="translate(9.801 -32.666)" fill="#2b365f"/>
        <path id="Path_5898" data-name="Path 5898" d="M0,1.643C0,2.55.337,3.286.753,3.286s.753-.736.753-1.643S1.168,0,.753,0,0,.736,0,1.643" transform="matrix(0.891, 0.454, -0.454, 0.891, 42.882, 56.417)" fill="#fff"/>
        <g id="Path_5920" data-name="Path 5920" transform="translate(23.697 65.108) rotate(-9)" fill="#2b365f">
          <path d="M 2.41152548789978 4.525557994842529 C 1.604443192481995 4.525557994842529 0.9151231050491333 4.249831676483154 0.5956103205680847 3.802853107452393 C 0.6416482925415039 3.750484228134155 0.7196959257125854 3.679475069046021 0.7763254642486572 3.627958059310913 C 1.031685471534729 3.395648002624512 1.563045382499695 2.912248134613037 1.20136547088623 2.24508810043335 C 0.9679554104804993 1.814558029174805 0.7474854588508606 1.40789806842804 0.6177154183387756 1.084708094596863 C 0.4827024638652802 0.7484450936317444 0.4973338842391968 0.6295530796051025 0.5029124617576599 0.605563759803772 C 0.5249550938606262 0.5880609154701233 0.6606360077857971 0.4999980628490448 1.1551353931427 0.4999980628490448 C 1.51537549495697 0.4999980628490448 1.9713054895401 0.5841880440711975 2.726675510406494 0.72365802526474 C 3.260925531387329 0.8222980499267578 3.925805330276489 0.9450680613517761 4.809525489807129 1.085028052330017 C 5.077595233917236 1.127488017082214 5.365145206451416 1.148128032684326 5.688625335693359 1.148128032684326 C 6.292615413665771 1.148128032684326 6.922155380249023 1.073318004608154 7.477595329284668 1.007318019866943 C 7.949225425720215 0.9512680768966675 8.394685745239258 0.8983380794525146 8.750475883483887 0.8983380794525146 C 9.220685005187988 0.8983380794525146 9.328104972839355 0.993988037109375 9.344865798950195 1.013168096542358 C 9.372395515441895 1.044668078422546 9.393495559692383 1.139888048171997 9.370155334472656 1.312668085098267 C 9.015865325927734 3.935297966003418 4.104195594787598 4.525557994842529 2.41152548789978 4.525557994842529 Z" stroke="none"/>
          <path d="M 1.155135154724121 0.9999980926513672 C 1.144588470458984 0.9999980926513672 1.134309768676758 1.000043630599976 1.124247550964355 1.000131607055664 C 1.259507179260254 1.303244352340698 1.477653503417969 1.705623865127563 1.640925407409668 2.006788015365601 C 1.76660680770874 2.238610982894897 2.130241870880127 2.909207344055176 1.326763153076172 3.785476922988892 C 1.602200984954834 3.936835050582886 1.986883163452148 4.025557994842529 2.411525249481201 4.025557994842529 C 4.270639419555664 4.025557994842529 8.380182266235352 3.360317230224609 8.845990180969238 1.399992704391479 C 8.817360877990723 1.398947238922119 8.785629272460938 1.39833664894104 8.75052547454834 1.398338079452515 C 8.424355506896973 1.398358106613159 7.993215560913086 1.449588060379028 7.536745548248291 1.503818035125732 C 6.967485427856445 1.571458101272583 6.322265625 1.648128032684326 5.688625335693359 1.648128032684326 C 5.338685512542725 1.648128032684326 5.025545597076416 1.625478029251099 4.731315612792969 1.578878164291382 C 3.84129524230957 1.437908172607422 3.172935485839844 1.314507961273193 2.635895252227783 1.2153480052948 C 1.908595561981201 1.081058025360107 1.469595909118652 0.9999980926513672 1.155135154724121 0.9999980926513672 M 1.155135154724121 -1.9073486328125e-06 C 1.835135459899902 -1.9073486328125e-06 2.71012544631958 0.2462878227233887 4.887745380401611 0.5911879539489746 C 6.153468132019043 0.7916579246520996 7.714473724365234 0.3983941078186035 8.750473022460938 0.3983364105224609 C 9.496874809265137 0.3982949256896973 9.970651626586914 0.6023561954498291 9.865655899047852 1.379608154296875 C 9.453255653381348 4.432358264923096 4.146235466003418 5.025557994842529 2.411525249481201 5.025557994842529 C 1.42447566986084 5.025557994842529 0.56048583984375 4.669318199157715 0.1480550765991211 4.033768177032471 C -0.2643747329711914 3.398228168487549 1.115045547485352 3.134968042373657 0.761805534362793 2.48338794708252 C -0.05779457092285156 0.9716081619262695 -0.5795745849609375 -1.9073486328125e-06 1.155135154724121 -1.9073486328125e-06 Z" stroke="none" fill="#2b365f"/>
        </g>
        <path id="Path_5924" data-name="Path 5924" d="M49.973,37.8l1.26-.47" transform="translate(24.177 9.014)" fill="none" stroke="#2b365f" stroke-linecap="round" stroke-width="1"/>
        <path id="Path_5925" data-name="Path 5925" d="M49.2,35.906l1.3-1.039" transform="translate(24.138 8.891)" fill="none" stroke="#2b365f" stroke-linecap="round" stroke-width="1"/>
        <path id="Path_5926" data-name="Path 5926" d="M40.46,56.83,41,58.268" transform="translate(23.702 9.987)" fill="none" stroke="#2b365f" stroke-linecap="round" stroke-width="1"/>
        <path id="Path_5927" data-name="Path 5927" d="M39.124,56.83l-.884,2.278" transform="translate(23.591 9.987)" fill="none" stroke="#2b365f" stroke-linecap="round" stroke-width="1"/>
        <path id="Path_5931" data-name="Path 5931" d="M17.923,63.617l.56,1.68" transform="translate(22.577 10.326)" fill="none" stroke="#2b365f" stroke-linecap="round" stroke-width="1"/>
        <path id="Path_5932" data-name="Path 5932" d="M19.523,62.75l.7.56" transform="translate(22.656 10.283)" fill="none" stroke="#2b365f" stroke-linecap="round" stroke-width="1"/>
        <path id="Path_5912" data-name="Path 5912" d="M0,1.031S1.879-1.248,3.33.971" transform="matrix(0.961, 0.276, -0.276, 0.961, 44.407, 42.888)" fill="none" stroke="#2b365f" stroke-linecap="round" stroke-linejoin="round" stroke-width="1"/>
        <path id="Path_5928" data-name="Path 5928" d="M11.963,36.108l.937-2.625" transform="translate(22.279 8.092)" fill="none" stroke="#2b365f" stroke-linecap="round" stroke-width="1"/>
        <path id="Path_5929" data-name="Path 5929" d="M10.589,37.017v-2.2" transform="translate(22.21 8.385)" fill="none" stroke="#2b365f" stroke-linecap="round" stroke-width="1"/>
        <path id="Path_5913" data-name="Path 5913" d="M0,.891S1.623-1.078,2.877.839" transform="translate(65.273 42.843) rotate(41)" fill="none" stroke="#2b365f" stroke-linecap="round" stroke-linejoin="round" stroke-width="1"/>
        <path id="Path_5849" data-name="Path 5849" d="M.139,25.3S-2.73,5.007,17.564.019c0,0,1.892-.47-.86,3.2s-1.892,8.662,5.159,12.1,9.184,12.194,7.86,13.492c-.588.576-4.211-2.4-12.316-2.007A80.465,80.465,0,0,1,.139,25.3" transform="matrix(0.996, -0.087, 0.087, 0.996, 44.123, 11.818)" fill="#b4dcd3"/>
        <path id="Path_5899" data-name="Path 5899" d="M.33,24.638S-3.35,9.453,13.851,0" transform="matrix(0.996, -0.087, 0.087, 0.996, 46.769, 13.043)" fill="none" stroke="#2b365f" stroke-linecap="round" stroke-width="1"/>
        <path id="Path_5900" data-name="Path 5900" d="M0,12.862S-.308,6.2,6.356,0" transform="matrix(0.996, -0.087, 0.087, 0.996, 50.966, 24.808)" fill="none" stroke="#2b365f" stroke-linecap="round" stroke-width="1"/>
        <path id="Path_5909" data-name="Path 5909" d="M0,10.721S5.669-3.039,18.558.618" transform="matrix(0.996, -0.087, 0.087, 0.996, 54.908, 26.613)" fill="none" stroke="#2b365f" stroke-linecap="round" stroke-width="1"/>
        <path id="Path_5930" data-name="Path 5930" d="M23.145,29.154,20.8,25.71" transform="translate(23.268 7.985)" fill="none" stroke="#2b365f" stroke-linecap="round" stroke-width="1"/>
        <path id="Path_5933" data-name="Path 5933" d="M36.717,28.887s4.888-8.111,13.217-.412" transform="translate(23.515 8.406)" fill="none" stroke="#2b365f" stroke-linecap="round" stroke-width="1"/>
        <path id="Path_5962" data-name="Path 5962" d="M4.839,2.2a4.946,4.946,0,0,1,.361,4.8C4.8,7.578,2.045,5.943.648,3.814S.393.522,1.441.117,3.545.343,4.839,2.2Z" transform="translate(49.606 82.821) rotate(99)" fill="#2b365f"/>
      </g>
    </g>
    <path id="Path_5922" data-name="Path 5922" d="M3,0A4.183,4.183,0,0,1,6.75,4,4.183,4.183,0,0,1,3,8C1.343,8,0,6.209,0,4S1.343,0,3,0Z" transform="translate(230.852 425.931)" fill="#fff"/>
    <path id="Path_5923" data-name="Path 5923" d="M2,0A3.708,3.708,0,0,1,4.8,2.857c0,1.1-1.7,2.514-2.8,2.514S0,3.1,0,2A2,2,0,0,1,2,0Z" transform="translate(237.152 433.931)" fill="#fff"/>
    <path id="Path_5921" data-name="Path 5921" d="M9,0c4.971,0,6.15,4.029,6.15,9S13.971,18,9,18s-7.45-2.329-7.45-7.3S4.029,0,9,0Z" transform="translate(231.202 399)" fill="#fff"/>
  </g>
</svg>
