<svg xmlns="http://www.w3.org/2000/svg" width="155.824" height="143.021" viewBox="0 0 155.824 143.021">
  <g id="Group_5646" data-name="Group 5646" transform="translate(29.202 -427.999)">
    <path id="Path_5502" data-name="Path 5502" d="M120.989,209.356a4.82,4.82,0,0,0-4.459-.856c2.623-1.736,14.953.818,14.953.818a6.246,6.246,0,0,0-3.935-4.672A5.162,5.162,0,0,1,130.335,206a11.262,11.262,0,0,0-7.871-7.449,6.024,6.024,0,0,1,3.277.168c-5.185-6.978-13.637-2.908-16.652-1.115a11.171,11.171,0,0,0-2.829-4.117c-2.391-2.156-3.214-3.109-5.343-7.117a9.986,9.986,0,0,1,5.546,1.64s-1.876-5.083-5.757-7.256a25.438,25.438,0,0,1-4.285-3.148q-.286-.625-.554-1.226a.773.773,0,0,1,.42-.109c2.234-.084,4.027,2.237,3.945,1.245a5.685,5.685,0,0,0-1.158-2.316,24.78,24.78,0,0,0-5.126-3.308l-.033-.084a16.3,16.3,0,0,0,4.1.435,33.886,33.886,0,0,1-3.055-2.249,4.785,4.785,0,0,0,4.049-.006,21.993,21.993,0,0,1-4.1-3.073c1.661-1.389,4.711-.4,4.711-.4-.366-2.581-7.256-5.475-8.036-5.8a44.443,44.443,0,0,1-.509-5.392c.287-6.452,1.919-20.889-11.4-25.917-7.142-2.7-14.211.529-14.211.529s-6.395,1.8-9.183,10.33-.82,19.062.655,19.779,1.312,2.848,1.312,2.848l-.074.467h-.619s-1.4,3.336-9.048,9.234c0,0,5.046-2.64,5.516-2.084s-6.806,5.645-7.158,5.784c0,0,5.81-1.316,7.071-2.033,0,0-6.337,4.862-7.071,5.417a18.75,18.75,0,0,0,6.545-1.863c-1.051,1.228-2.32,3.842-2.32,9.309a9.093,9.093,0,0,1,2.506-2.529c0,.048-.006.092-.008.134-.047.969-.084,2.745-.076,4.953,0,0-4.047,8.823-3.226,10.46s2.609-3.523,3.511-2q.022.336.046.679c-.583,2.376-6.6,8.215-2.491,6.569a3,3,0,0,1,3.417,1.155s-.038,6.3-.835,6.56a2.447,2.447,0,0,0,1.907-1.489c-.459,1.456-.868,3.848.513,5.69,0,0,.212-2.278,1.287-2.689.656,1.927,4.5,2.531,4.795,4.546-.086.759-.254,3.347-1.49,3.558-2.138.037-2.226.715-1.126,1.426-.6.45-1.505.475-.9,1.195.035.023-.168.616-.132.588-.146,1.156,1.636,2.5,3.579,2.992,6.208,1.585,8.969-.22,9.871-3.774l.772-.358c-1.639,2.161-2.3,9.27,3.277,8.3s8.2-2.284,9.346-8.187c.7-3.613,2.185-4.706,3.237-5.012l.553,1.966c.611-.588.42-2.229.8-2s0,2,0,2a3.109,3.109,0,0,0,2-1.834l.588-.2s-.656,3.76,7.051,2.783a21.729,21.729,0,0,0,6.333-1.673c2.353.527,7.04-.252,5.714-1.237a12.061,12.061,0,0,1-1.491-1.351c2.011.092,3.017,1.305,2.585.223-.547-1.368-2.237-.908-.437-1.311,3.17-.71,1.53-1.475,0-1.53s-2.093-1.825-2.093-1.825a13.138,13.138,0,0,0-.934-1.947s.106-.407.242-1.108a91.3,91.3,0,0,1,11.714-.672,11.28,11.28,0,0,0-2.113-1.238,13.6,13.6,0,0,1,1.606.438" transform="translate(-15.954 337.386)" fill="#fac9a2"/>
    <path id="Path_5503" data-name="Path 5503" d="M119.316,231.769a46.991,46.991,0,0,1-32.875,2.849v2.735a38.38,38.38,0,0,0,33.108-2.434Z" transform="translate(-43.9 264.34)" fill="#698693"/>
    <path id="Path_5505" data-name="Path 5505" d="M37.95,93.4a7.231,7.231,0,0,0-7.242.984c-3.781,2.733-4.33,6.806-5.837,7.2s-2.918,14.331,0,17.72-3.162-.875-4.229-1.749,0,1.639,0,1.639-3.661.218-4.85-5.794a24.348,24.348,0,0,0-3.781-9.4s-3.567,3.221-4,1.993.54-2.889,1.081-4.409S0,99.737,0,99.737,13.957,95.475,13.849,92.3s-5.6-1.39-4-4.173c1.987-3.452-.013-6.4-1.418-8.043s5.2,2.6,6.715,2.269,3.865-1.176,6.418-.808-3.5-1.926-3.5-1.926,1.081-1.968,3.025-1.53-.649-3.389.973-3.277,4.323,5.247,7.134,5.028,3.675-1.2,3.675-1.2-.108-1.312-2.756-1.421.582-2.628,2.1-2.407,7.306,1.927,8,.029c.672-1.829-5.709-5.247-5.709-5.247s6.038-.9,9.5,3.69,3.6,5.248,3.6,5.248a8.087,8.087,0,0,1,6.554-2.514c4,.437,4.537,3.389,4.324,3.716s6.161-.218,5.837,2.842.865,2.185.865,2.185,4,.328,4.537-1.749,3.025,1.639,1.838,3.17-4.324,4.37-5.621,4.045,8.107,5.248,11.241,3.607-2.7,6.122-9.728,2.842c0,0,2.548,4.749,10.979,3.06,4.117-.823-5.574,6.338-8.709,5.11s7.242,5.274,7.242,5.274-.006,1.864-4,1.329c-6.477-.868-.54,5.777-.54,5.777a5.22,5.22,0,0,1-5.837.875c-7.509-3.13-4.648-.328-4.648-.328s3.567,3.781,2.7,3.529-6.846-1.926-7.962-5.351S54.268,94.661,45.949,91.977c-5.08-1.638-8,1.421-8,1.421" transform="translate(17.138 378.906)" fill="#fac9a2"/>
    <path id="Path_5506" data-name="Path 5506" d="M98.154,182.434s-10.7-2.557-13.871,5.29,0,13.1,1.968,13.424.328-2.405,1.421-3.607.546,4.369,1.749,4.153,2.914-4.432,8.663-9.535l.071-7.164Z" transform="translate(-41.426 299.458)" fill="#fff"/>
    <path id="Path_5507" data-name="Path 5507" d="M133.83,182.432s10.7-2.56,13.871,5.29,0,13.1-1.968,13.424-.328-2.405-1.421-3.607-.547,4.369-1.749,4.153-3.4-4.832-8.734-9.535v-9.724Z" transform="translate(-77.362 299.46)" fill="#fff"/>
    <path id="Path_5508" data-name="Path 5508" d="M128.818,195.821s1.753-2.628-.706-3.338a9.4,9.4,0,0,0-4.389-.066s-2.392.727-.756,3.186c0,0,1.64,1.8,2.87,2.022s2.982-1.8,2.982-1.8" transform="translate(-69.288 292.289)" fill="#2b365f"/>
    <path id="Path_5509" data-name="Path 5509" d="M106.926,120.744c-5.247-11.7-17.618-12.726-17.618-12.726-10.535-.82-15.618.993-19.57,5.019a15.989,15.989,0,0,0-4.7,9.383,51.263,51.263,0,0,1,4.794-4.727,28.06,28.06,0,0,0-4.585,6.823c-1.887,4.755,1.35,10.314,1.35,10.314-.222-1.984,2.144-5.194,2.144-5.194-1.795,3.1-.192,9.4-.192,9.4,0-2.312,3.261-4.836,3.261-4.836A7.622,7.622,0,0,0,75.274,131c1.633.517,3.385-.135,4.98-.771,3.446-1.6,4.537-4.538,5.656-8.361.044,3.786-.314,8.212-.314,8.212,4.621-4.6,2.009-17.043,2.009-17.043,9.618,4.974,7.555,17.909,7.555,17.909,2.447.438,3.694-2.315,3.694-2.315,1.351,1.443.43,4.409.43,4.409,2.516,0,3.215-4.716,3.215-4.716,1.1.168,1.778,4.716,1.778,4.716,3.961-1.642,1-8.963,1-8.963,2.134.872,1.884,5.643,2.355,4.819s.665-3.281-.709-8.155" transform="translate(-28.519 351.861)" fill="#fff"/>
    <path id="Path_5510" data-name="Path 5510" d="M155.3,174.252a.924.924,0,0,1-.428-.855c.065-.808.359-2.257,1.623-2.259,2.474,0,3.5,2.627,1.749,3.445a3.069,3.069,0,0,1-2.943-.332" transform="translate(-92.216 307.153)" fill="#2b365f"/>
    <path id="Path_5511" data-name="Path 5511" d="M164.753,174.393c.191,0,.346.253.346.565s-.155.565-.346.565-.346-.253-.346-.565.155-.565.346-.565" transform="translate(-98.954 304.855)" fill="#fcebf2"/>
    <path id="Path_5512" data-name="Path 5512" d="M157.924,176.11a.223.223,0,0,0-.306.2,1.326,1.326,0,0,0,.648,1.339c.748.325.376-1.23-.341-1.537" transform="translate(-94.159 303.655)" fill="#fcebf2"/>
    <path id="Path_5513" data-name="Path 5513" d="M276.425,12.9S287.209.988,292.763,14c3.761,8.808-17.214,18.746-22.49,18.55s-16.83-18.3-4.8-29.316S276.425,12.9,276.425,12.9" transform="translate(-166.591 428)" fill="#d2384e"/>
    <path id="Path_5514" data-name="Path 5514" d="M142.772,144.5s17.569,12.712,41.217-11.065c8.974-9.023,3.3-23.48,3.3-23.48" transform="translate(-83.677 349.644)" fill="none" stroke="#d2384e" stroke-width="1"/>
    <path id="Path_5515" data-name="Path 5515" d="M-92.1,212.858c46-39.081,77.41,28.891,82.872,10.317" transform="translate(63.221 271.044)" fill="none" stroke="#d2384e" stroke-width="1"/>
    <path id="Path_5516" data-name="Path 5516" d="M119.48,220.607s.578.053.485,1.7-6.559,14.137-4.232,14.137c5.8,0,4.4-14.924,6.271-15.835" transform="translate(-64.227 272.222)" fill="none" stroke="#d2384e" stroke-width="1"/>
    <g id="Group_5645" data-name="Group 5645" transform="translate(20.307 451.904)">
      <path id="Path_5517" data-name="Path 5517" d="M78.055,416.789a.17.17,0,0,0,.115,0,.853.853,0,0,1-.115,0" transform="translate(-58.286 -318.212)" fill="#fcbc90" stroke="#2b365f" stroke-width="1"/>
      <path id="Path_5518" data-name="Path 5518" d="M119.03,461.315a4.438,4.438,0,0,0-1.562,2.758" transform="translate(-91.608 -349.993)" fill="none" stroke="#2b365f" stroke-linecap="round" stroke-linejoin="round" stroke-width="1"/>
      <path id="Path_5519" data-name="Path 5519" d="M112.237,461.315a8.527,8.527,0,0,0-.8,3.02" transform="translate(-82.572 -349.653)" fill="none" stroke="#2b365f" stroke-linecap="round" stroke-linejoin="round" stroke-width="1"/>
      <path id="Path_5520" data-name="Path 5520" d="M106.108,461.315a10.893,10.893,0,0,1-.386,2.758" transform="translate(-73.195 -349.653)" fill="none" stroke="#2b365f" stroke-linecap="round" stroke-linejoin="round" stroke-width="1"/>
      <path id="Path_5521" data-name="Path 5521" d="M98.57,461.315a2.965,2.965,0,0,0-.512,2.418" transform="translate(170.227 -338.034) rotate(30)" fill="none" stroke="#2b365f" stroke-linecap="round" stroke-linejoin="round" stroke-width="1"/>
      <path id="Path_5522" data-name="Path 5522" d="M158.254,469.544s.823,2.324.24,3.8" transform="translate(-114.916 -355.464)" fill="none" stroke="#2b365f" stroke-linecap="round" stroke-linejoin="round" stroke-width="1"/>
      <path id="Path_5523" data-name="Path 5523" d="M146.258,471.591s-.218,2.064-.437,3.879" transform="translate(-106.137 -356.909)" fill="none" stroke="#2b365f" stroke-linecap="round" stroke-linejoin="round" stroke-width="1"/>
      <path id="Path_5524" data-name="Path 5524" d="M136.161,468.4s-.557,1.146-1.1,2.632" transform="translate(-98.542 -354.656)" fill="none" stroke="#2b365f" stroke-linecap="round" stroke-linejoin="round" stroke-width="1"/>
      <path id="Path_5525" data-name="Path 5525" d="M206.4,431.08s-1.327.214-2.092,2.512" transform="translate(-147.437 -328.303)" fill="none" stroke="#2b365f" stroke-linecap="round" stroke-linejoin="round" stroke-width="1"/>
      <path id="Path_5526" data-name="Path 5526" d="M212.393,437.4a5.942,5.942,0,0,0-1.49,3.437" transform="translate(-152.094 -332.767)" fill="none" stroke="#2b365f" stroke-linecap="round" stroke-linejoin="round" stroke-width="1"/>
      <path id="Path_5527" data-name="Path 5527" d="M228.349,435.352a5.867,5.867,0,0,0-1.092,3.949" transform="translate(-163.626 -331.32)" fill="none" stroke="#2b365f" stroke-linecap="round" stroke-linejoin="round" stroke-width="1"/>
      <path id="Path_5528" data-name="Path 5528" d="M239.518,435.352s-.324.2-.464,3.515" transform="translate(-171.972 -331.32)" fill="none" stroke="#2b365f" stroke-linecap="round" stroke-linejoin="round" stroke-width="1"/>
      <path id="Path_5529" data-name="Path 5529" d="M149.162,358.767s-5.936,7.664-5.882,12.83a32.49,32.49,0,0,1-2.093,10.589" transform="translate(-102.865 -274.642)" fill="none" stroke="#2b365f" stroke-linecap="round" stroke-linejoin="round" stroke-width="1"/>
      <path id="Path_5532" data-name="Path 5532" d="M108.292,305.034s-.363,9.484,3.109,11.452,6.421,2.623,7.73,4.591" transform="translate(-79.629 -239.298)" fill="none" stroke="#2b365f" stroke-linecap="round" stroke-linejoin="round" stroke-width="1"/>
      <path id="Path_5534" data-name="Path 5534" d="M73.338,382.6s-1.165,2.965-2.148,3.781" transform="translate(-53.438 -294.068)" fill="none" stroke="#2b365f" stroke-linecap="round" stroke-linejoin="round" stroke-width="1"/>
      <path id="Path_5535" data-name="Path 5535" d="M76.032,255.1s-4.866.871-4.866-.492" transform="translate(-56.262 -195.871)" fill="none" stroke="#2b365f" stroke-linecap="round" stroke-linejoin="round" stroke-width="1"/>
      <path id="Path_5537" data-name="Path 5537" d="M112.741,205.986a9.674,9.674,0,0,0-3.1,4.7" transform="translate(-80.591 -169.357)" fill="none" stroke="#2b365f" stroke-linecap="round" stroke-linejoin="round" stroke-width="1"/>
      <path id="Path_5538" data-name="Path 5538" d="M149.127,205.954s3.207-.051,3.833,6.89" transform="translate(-108.472 -169.335)" fill="none" stroke="#2b365f" stroke-linecap="round" stroke-linejoin="round" stroke-width="1"/>
      <path id="Path_5539" data-name="Path 5539" d="M155.5,124.632s7.169,1.167,7.825,10.349" transform="translate(-112.972 -111.911)" fill="none" stroke="#2b365f" stroke-linecap="round" stroke-linejoin="round" stroke-width="1"/>
      <path id="Path_5542" data-name="Path 5542" d="M107.106,152.493s-1.612,4.632-4.633,6.05" transform="translate(-75.525 -128.808)" fill="none" stroke="#2b365f" stroke-linecap="round" stroke-linejoin="round" stroke-width="1"/>
      <path id="Path_5545" data-name="Path 5545" d="M175.2,276.532s.773,3.553,2.464,3.529" transform="translate(-126.88 -219.172)" fill="none" stroke="#2b365f" stroke-linecap="round" stroke-linejoin="round" stroke-width="1"/>
      <path id="Path_5546" data-name="Path 5546" d="M183.429,327.3a19.189,19.189,0,0,1-5.794,8.035" transform="translate(-128.602 -255.023)" fill="none" stroke="#2b365f" stroke-linecap="round" stroke-linejoin="round" stroke-width="1"/>
      <line id="Line_207" data-name="Line 207" x2="0.908" y2="2.42" transform="translate(57.915 88.015)" fill="none" stroke="#2b365f" stroke-linecap="round" stroke-linejoin="round" stroke-width="1"/>
      <path id="Path_5547" data-name="Path 5547" d="M199.1,201.351s1.428,4.324,4.962,5.8" transform="translate(-143.761 -166.084)" fill="none" stroke="#2b365f" stroke-linecap="round" stroke-linejoin="round" stroke-width="1"/>
      <path id="Path_5548" data-name="Path 5548" d="M216.156,115.177a16.961,16.961,0,0,0,3-7.352" transform="translate(-155.803 -100.043)" fill="none" stroke="#2b365f" stroke-linecap="round" stroke-linejoin="round" stroke-width="1"/>
      <path id="Path_5549" data-name="Path 5549" d="M19.669,158.181s-6.045.162-8.887-1.559" transform="translate(-10.782 -134.5)" fill="none" stroke="#2b365f" stroke-linecap="round" stroke-linejoin="round" stroke-width="1"/>
      <path id="Path_5551" data-name="Path 5551" d="M65.248,212.357a5.592,5.592,0,0,0,2.838,4.122" transform="translate(-49.242 -173.856)" fill="none" stroke="#2b365f" stroke-linecap="round" stroke-linejoin="round" stroke-width="1"/>
      <path id="Path_5553" data-name="Path 5553" d="M175.5,97.87s3.041-2.8,5.446-2.933" transform="translate(-131.717 -92.94)" fill="none" stroke="#2b365f" stroke-linecap="round" stroke-linejoin="round" stroke-width="1"/>
      <path id="Path_5555" data-name="Path 5555" d="M75.214,88.27S69.932,84.035,70,81.343" transform="translate(-52.6 -81.343)" fill="none" stroke="#2b365f" stroke-linecap="round" stroke-linejoin="round" stroke-width="1"/>
      <path id="Path_5557" data-name="Path 5557" d="M221.114,308.458a14.809,14.809,0,0,1,6.529,1.337" transform="translate(-159.304 -241.714)" fill="none" stroke="#2b365f" stroke-linecap="round" stroke-linejoin="round" stroke-width="1"/>
      <path id="Path_5558" data-name="Path 5558" d="M213.439,408.74a3.982,3.982,0,0,1,0,2.834" transform="translate(-153.884 -312.528)" fill="none" stroke="#2b365f" stroke-linecap="round" stroke-linejoin="round" stroke-width="1"/>
      <path id="Path_5559" data-name="Path 5559" d="M259.444,374.759a16.405,16.405,0,0,1,0,7.542" transform="translate(-186.37 -288.533)" fill="none" stroke="#2b365f" stroke-linecap="round" stroke-linejoin="round" stroke-width="1"/>
      <path id="Path_5560" data-name="Path 5560" d="M268.84,355.834a16.452,16.452,0,0,1,10.717-7.25" transform="translate(-193.005 -270.05)" fill="none" stroke="#2b365f" stroke-linecap="round" stroke-linejoin="round" stroke-width="1"/>
      <path id="Path_5561" data-name="Path 5561" d="M273.134,387.607s4.441.793,6.146,2.3" transform="translate(-196.037 -297.606)" fill="none" stroke="#2b365f" stroke-linecap="round" stroke-linejoin="round" stroke-width="1"/>
      <line id="Line_212" data-name="Line 212" x2="6.023" y2="0.494" transform="translate(57.599 56.76)" fill="none" stroke="#2b365f" stroke-linecap="round" stroke-linejoin="round" stroke-width="1"/>
      <path id="Path_5565" data-name="Path 5565" d="M104.1,367.611a9.541,9.541,0,0,0,1.842,4.447" transform="translate(-76.673 -283.486)" fill="none" stroke="#2b365f" stroke-linecap="round" stroke-linejoin="round" stroke-width="1"/>
      <path id="Path_5567" data-name="Path 5567" d="M127.963,210.532v1.724l-2.551,2.627" transform="translate(-91.726 -172.568)" fill="none" stroke="#2b365f" stroke-linecap="round" stroke-linejoin="round" stroke-width="1"/>
      <line id="Line_213" data-name="Line 213" x1="2.551" y1="2.627" transform="translate(36.237 39.612)" fill="none" stroke="#2b365f" stroke-linecap="round" stroke-linejoin="round" stroke-width="1"/>
      <path id="Path_5568" data-name="Path 5568" d="M97.948,431.835s.141,3.2-.843,4.983" transform="translate(-71.737 -328.836)" fill="none" stroke="#2b365f" stroke-linecap="round" stroke-linejoin="round" stroke-width="1"/>
    </g>
    <path id="Path_5570" data-name="Path 5570" d="M117.674,440.4s4.077,6.523-2.718,9.513" transform="translate(2.764 0.238)" fill="none" stroke="#2b365f" stroke-linecap="round" stroke-width="1"/>
  </g>
</svg>
